HIERARCHY
ROOT Hips
{
 OFFSET 0.000000 0.000000 0.000000
 CHANNELS 6 Xposition Yposition Zposition Yrotation Xrotation Zrotation
 JOINT Chest
 {
  OFFSET 0.000000 14.374500 -0.011500
  CHANNELS 3 Yrotation Xrotation Zrotation
  JOINT Chest2
  {
   OFFSET 0.000000 9.203400 0.023400
   CHANNELS 3 Yrotation Xrotation Zrotation
   JOINT Chest3
   {
    OFFSET 0.000000 9.162700 0.000000
    CHANNELS 3 Yrotation Xrotation Zrotation
    JOINT Chest4
    {
     OFFSET 0.000000 9.153300 0.000000
     CHANNELS 3 Yrotation Xrotation Zrotation
     JOINT Neck
     {
      OFFSET 0.000000 13.353600 0.000000
      CHANNELS 3 Yrotation Xrotation Zrotation
      JOINT Head
      {
       OFFSET 0.000000 8.573800 0.049400
       CHANNELS 3 Yrotation Xrotation Zrotation
       End Site
       {
        OFFSET 0.000000 16.219200 0.026100
       }
      }
     }
     JOINT RightCollar
     {
      OFFSET -2.497100 8.876100 0.000000
      CHANNELS 3 Yrotation Xrotation Zrotation
      JOINT RightShoulder
      {
       OFFSET -12.289200 0.000000 0.000000
       CHANNELS 3 Yrotation Xrotation Zrotation
       JOINT RightElbow
       {
        OFFSET 0.000000 -28.194900 0.000000
        CHANNELS 3 Yrotation Xrotation Zrotation
        JOINT RightWrist
        {
         OFFSET 0.000000 -23.009700 0.007900
         CHANNELS 3 Yrotation Xrotation Zrotation
         End Site
         {
          OFFSET 0.000000 -17.151500 0.000000
         }
        }
       }
      }
     }
     JOINT LeftCollar
     {
      OFFSET 2.497100 8.876100 0.000000
      CHANNELS 3 Yrotation Xrotation Zrotation
      JOINT LeftShoulder
      {
       OFFSET 12.289200 0.000000 0.000000
       CHANNELS 3 Yrotation Xrotation Zrotation
       JOINT LeftElbow
       {
        OFFSET 0.000000 -28.194900 0.000000
        CHANNELS 3 Yrotation Xrotation Zrotation
        JOINT LeftWrist
        {
         OFFSET 0.000000 -23.009700 0.007900
         CHANNELS 3 Yrotation Xrotation Zrotation
         End Site
         {
          OFFSET 0.000000 -17.151500 0.000000
         }
        }
       }
      }
     }
    }
   }
  }
 }
 JOINT RightHip
 {
  OFFSET -11.777600 0.056700 0.005700
  CHANNELS 3 Yrotation Xrotation Zrotation
  JOINT RightKnee
  {
   OFFSET 0.000000 -39.966000 -0.004200
   CHANNELS 3 Yrotation Xrotation Zrotation
   JOINT RightAnkle
   {
    OFFSET 0.000000 -41.981900 0.027400
    CHANNELS 3 Yrotation Xrotation Zrotation
    JOINT RightToe
    {
     OFFSET 0.000000 -9.910600 16.950100
     CHANNELS 3 Yrotation Xrotation Zrotation
     End Site
     {
      OFFSET 0.000000 -1.461000 6.191600
     }
    }
   }
  }
 }
 JOINT LeftHip
 {
  OFFSET 11.777600 0.056700 0.005700
  CHANNELS 3 Yrotation Xrotation Zrotation
  JOINT LeftKnee
  {
   OFFSET 0.000000 -39.966000 -0.004200
   CHANNELS 3 Yrotation Xrotation Zrotation
   JOINT LeftAnkle
   {
    OFFSET 0.000000 -41.981900 0.027400
    CHANNELS 3 Yrotation Xrotation Zrotation
    JOINT LeftToe
    {
     OFFSET 0.000000 -9.910600 16.950100
     CHANNELS 3 Yrotation Xrotation Zrotation
     End Site
     {
      OFFSET 0.000000 -1.461000 6.191600
     }
    }
   }
  }
 }
}
MOTION
Frames: 5
Frame Time: 0.008333
0.000000 91.618700 0.000000 0.000000 -5.767877 0.000000 0.000000 11.653817 0.000000 0.000000 -5.885947 0.000000 0.000000 -0.000000 0.000000 0.000000 -0.000000 0.000000 0.000000 12.528835 0.000000 0.000000 0.711642 0.000000 0.000000 -0.000000 0.000000 0.000000 0.000000 -90.000000 0.000000 -2.309062 0.000000 0.000000 2.309062 0.000000 0.000000 -0.000000 0.000000 0.000000 -0.000000 90.000000 0.000000 -2.309062 0.000000 0.000000 2.309062 0.000000 0.000000 8.520406 0.000000 0.000000 1.905762 0.000000 -0.000000 -4.658285 0.000000 0.000000 -0.000000 0.000000 0.000000 8.520406 0.000000 0.000000 1.905762 0.000000 -0.000000 -4.658285 0.000000 0.000000 -0.000000 0.000000
-4.920011 152.697617 86.088051 172.776615 -50.238918 -2.559926 4.743681 29.371562 4.079278 0.681395 5.616877 0.623066 1.075616 8.780167 0.996059 3.404913 23.418937 3.193457 2.834560 13.613631 -1.436042 3.307050 -11.384960 -2.158621 2.462465 -2.560107 -0.080208 7.511551 -18.674722 -12.780727 29.291030 -71.552504 -13.785689 33.538797 36.280490 -3.870704 -12.931666 -6.392147 -1.044970 -3.282815 -18.732657 6.557315 -9.458366 -62.688400 -7.004602 -22.199300 10.317939 18.629649 5.958420 -27.596620 1.415602 -70.807233 86.302554 -73.622530 3.990590 -24.433982 8.318700 0.058864 -0.224318 0.048555 3.034511 -23.705194 -2.379953 150.967339 67.590293 162.293189 -3.243887 2.132273 -7.808698 0.120503 -9.619555 -0.303833
-5.366822 145.653081 87.222214 172.946489 -50.192746 -2.776413 4.688752 29.320426 4.182440 0.683863 5.611391 0.626628 1.077387 8.791195 0.996923 3.420909 23.409118 3.206233 3.120061 13.549417 -1.511895 3.640540 -11.442017 -2.309916 2.410171 -2.624833 -0.091477 7.493697 -18.568104 -12.646803 29.693019 -71.490488 -14.221566 33.471479 36.218948 -3.896540 -12.899717 -6.478012 -0.966713 -3.336165 -18.655360 6.447572 -9.727818 -62.628285 -6.708160 -22.183268 10.267190 18.639016 5.799688 -27.673118 1.514162 -71.368549 86.311934 -74.190655 4.002185 -24.533421 8.330285 0.033434 -0.153908 0.019541 2.885202 -23.732025 -2.281115 150.939935 67.624883 162.262318 -3.197541 2.172208 -7.767753 0.048515 0.049019 0.028364
-5.735631 139.853426 88.155223 173.077731 -50.165039 -2.943222 4.647917 29.271451 4.268633 0.679721 5.620681 0.623491 1.095987 8.773163 1.010899 3.415453 23.415453 3.209009 3.421137 13.498961 -1.596855 3.989110 -11.485734 -2.475283 2.363909 -2.673263 -0.097517 7.500187 -18.462660 -12.536170 30.030366 -71.428046 -14.618734 33.335726 36.151915 -3.946567 -12.860392 -6.520277 -0.903304 -3.402604 -18.608935 6.350079 -10.013163 -62.555496 -6.383490 -22.163653 10.204249 18.644143 5.673343 -27.721840 1.594522 -71.809091 86.315737 -74.641097 4.006929 -24.619393 8.340918 0.015500 -0.080272 0.009059 2.769605 -23.743338 -2.205664 150.922186 67.658304 162.244374 -3.166621 2.222953 -7.744742 0.017345 0.032766 0.010143
-6.005816 135.667505 88.826743 173.129063 -50.162858 -3.012689 4.632657 29.264522 4.304982 0.680230 5.620357 0.623892 1.105765 8.749042 1.022975 3.417292 23.420298 3.212322 3.736885 13.451360 -1.688281 4.350093 -11.514392 -2.653863 2.328441 -2.716142 -0.097361 7.516317 -18.360588 -12.437152 30.342593 -71.362012 -15.006409 33.250470 36.083426 -3.965694 -12.817596 -6.547824 -0.843592 -3.476309 -18.579594 6.255174 -10.313735 -62.465471 -6.026431 -22.112322 10.122196 18.642023 5.619933 -27.738349 1.630518 -72.099731 86.320707 -74.936875 4.002822 -24.665878 8.346699 0.006854 -0.045075 0.004007 2.722419 -23.733989 -2.170843 150.905451 67.684084 162.233034 -3.162291 2.265834 -7.740419 0.011095 0.017610 0.006488
